<svg width="720" height="720" xmlns="http://www.w3.org/2000/svg"><title>Letter B Monogram</title><title>Layer 1</title><path fill="#e67e22" d="M355.567 696.939c-9.922-.309-18.472-.821-19-1.138-.528-.317-4.166-.857-8.086-1.199-7.237-.632-18.017-2.242-33.373-4.983-27.588-4.925-72.027-22.007-95-36.517-3.575-2.258-7.4-4.505-8.5-4.993-2.563-1.138-17.78-11.395-23-15.503-2.2-1.731-5.951-4.464-8.336-6.072-2.384-1.608-7.109-5.402-10.5-8.43-10.331-9.227-42.891-42.006-47.488-47.808-8.995-11.351-32.176-48.956-32.176-52.195 0-.605-.338-1.106-.75-1.112-.413-.006-1.65-1.919-2.75-4.25-1.099-2.331-3.686-7.338-5.75-11.127-2.062-3.789-3.75-7.626-3.75-8.527 0-.902-.592-2.527-1.316-3.612-.723-1.085-1.895-3.997-2.603-6.472-.708-2.475-1.64-4.95-2.072-5.5-.754-.962-5.118-13.586-8.297-24-.84-2.75-2.053-7.7-2.697-11-.645-3.3-2-9.6-3.012-14-1.013-4.4-2.132-10.925-2.487-14.5-.355-3.575-1.389-11.45-2.297-17.5-2.064-13.753-2.214-64.438-.218-74 .688-3.3 2.083-11.175 3.1-17.5 2.663-16.568 3.663-20.979 8.053-35.5 7.639-25.271 10.224-33.202 12.437-38.152.775-1.733 1.409-3.455 1.409-3.826 0-.603 15.372-31.817 18.91-38.399 4.246-7.898 18.644-28.413 29.874-42.566 18.518-23.338 60.384-59.625 85.716-74.294 9.976-5.776 29.787-15.556 38-18.756 3.85-1.501 8.8-3.517 11-4.48 3.606-1.58 23.463-8.628 31-11.003 24.293-7.657 63.606-13.68 87-13.33 30.526.456 52.967 2.577 72.5 6.85 3.575.782 9.847 2.116 13.939 2.965 7.697 1.596 10.322 2.36 25.65 7.464 4.999 1.665 9.567 3.027 10.15 3.027.584 0 4.96 1.817 9.724 4.039 4.764 2.221 10.771 4.884 13.349 5.916 20.298 8.127 59.64 32.497 71.323 44.18.942.942 2.734 2.26 3.983 2.928 7.626 4.081 42.367 40.54 54.157 56.836 7.045 9.737 15.674 22.884 17.021 25.933.649 1.467 1.732 3.118 2.408 3.668.676.55 2.857 4.15 4.846 8 1.989 3.85 4.161 7.675 4.825 8.5 1.359 1.686 3.897 6.965 8.657 18 1.779 4.125 3.85 8.387 4.601 9.472.752 1.085 1.367 2.747 1.367 3.693 0 .946.861 3.208 1.914 5.027s2.482 5.333 3.175 7.808c.694 2.475 1.571 4.95 1.95 5.5 1.165 1.689 6.69 21.463 8.801 31.5 3.463 16.464 4.115 20.25 5.202 30.219.584 5.345 1.295 10.745 1.581 12 .287 1.254.693 12.631.903 25.281.286 17.249-.005 25.625-1.166 33.5-2.131 14.452-2.075 14.046-3.816 27.5-1.906 14.737-1.936 14.91-4.451 26-3.283 14.473-9.126 33.487-12.646 41.151-.796 1.733-1.447 3.448-1.447 3.812 0 .363-1.179 3.22-2.621 6.349a3767.95 3767.95 0 0 0-5.127 11.188c-6.256 13.724-13.379 26.733-20.807 38-2.72 4.125-5.17 7.725-5.445 8-.586.586-2.994 4.035-9.076 13-4.64 6.84-4.678 6.89-10.463 14-9.008 11.07-13.334 15.965-19.915 22.53-8.885 8.866-18.583 17.47-19.69 17.47-.466 0-3.987 2.88-7.822 6.4-5.885 5.401-18.685 14.486-34.034 24.157-4.18 2.633-26.655 14.759-36.5 19.692-15.498 7.766-45.837 18.079-65.5 22.265-.825.176-3.75.842-6.5 1.48-2.75.639-5.9 1.287-7 1.441-1.1.154-3.575.538-5.5.854-4.081.671-17.881 2.379-26.5 3.281-15.883 1.663-22.327 1.888-39.041 1.368zm14.318-6.495c1.223-.856 2.223-2.204 2.223-2.995 0-1.114.843-1.286 3.75-.764 5.089.915 9.182.617 10.88-.793 1.172-.972.666-1.869-2.979-5.281-4.778-4.473-9.741-11.395-15.475-21.58-3.149-5.594-3.721-6.172-3.985-4.03-.171 1.375-1.183 4.407-2.25 6.739-1.068 2.331-1.941 4.659-1.941 5.172 0 1.808-9.225 11.043-14.581 14.599-2.981 1.978-5.419 3.97-5.419 4.426 0 2.002 10.719 2.819 13.992 1.067 1.488-.796 2.463-.394 4.858 2 3.378 3.379 7.402 3.909 10.927 1.44zm-42.684-8.304c13.197-4.541 24.538-14.753 30.137-27.139 3.186-7.048 4.556-17.275 3.371-25.172-.644-4.297-6.327-14.301-10.272-18.082-10.725-10.278-20.686-14.628-35.291-15.411-15.747-.843-29.864 2.675-55.038 13.715-9.817 4.305-11.673 4.93-28.5 9.59-8.493 2.352-11.959 2.776-23 2.815-9.186.031-14.027-.382-16.5-1.409-7.04-2.922-14.516-9.582-17.015-15.157-.589-1.314-1.72-3.514-2.513-4.889-1.956-3.391-1.869-13.363.155-17.626.894-1.886 2.755-4.317 4.134-5.402 9.224-7.255 17.495 8.802 8.761 17.007-1.387 1.303-2.522 3.11-2.522 4.015 0 2.601 5.196 7.741 10.055 9.945 10.327 4.685 16.945 1.158 16.945-9.032 0-5.291-3.626-17.616-6.113-20.777-3.591-4.567-1.748-5.718 2.444-1.527 3.32 3.321 8.159 15.898 9.514 24.73 1.231 8.023 1.858 8.961 7.024 10.509 2.141.642 4.452 1.84 5.135 2.662 1.951 2.352 3.134 1.725 8.836-4.682 4.985-5.601 5.309-6.278 4.869-10.162-.259-2.288-1.197-5.827-2.084-7.864-2.609-5.99-12.748-17.694-20.125-23.232-1.984-1.489-1.983-1.501.16-1.533 2.104-.031 11.039 6.34 14.628 10.43.984 1.121 4.215 5.428 7.181 9.571 7.218 10.083 8.372 10.992 14.784 11.654 6.276.648 11.499-.723 17.066-4.478 3.297-2.224 7.472-7.803 6.504-8.692-.178-.163-2.348-.992-4.823-1.842-13.475-4.626-22.505-9.146-34.321-17.178-4.852-3.298-10.529-6.896-12.617-7.996-2.087-1.1-4.419-2.526-5.181-3.167-2.188-1.842-11.943-5.544-16.881-6.406-9.277-1.62-28.225 3.887-30.96 8.997-.627 1.172-1.537 1.887-2.021 1.587-1.761-1.088-9.062 7.652-12.521 14.989-3.358 7.123-4.092 11.875-3.367 21.794.761 10.41 2.531 15.008 8.739 22.706 7.886 9.777 14.533 13.931 30.195 18.871 7.557 2.383 20.801 2.464 30.84.187 17.022-3.859 28.759-8.272 37.595-14.135 11.272-7.478 28.419-13.791 41.618-15.321 5.397-.625 19.351 2.093 24.691 4.811 12.701 6.464 18.347 19.435 13.14 30.191-2.328 4.809-8.245 8.444-12.441 7.642-3.432-.656-7.508-5.718-7.508-9.323 0-3.812 3.18-6.923 7.076-6.923 2.945 0 3.063-.161 2.762-3.75-.597-7.111-7.961-12.679-16.472-12.456-6.353.168-9.231 1.841-12.177 7.083-2.59 4.607-2.878 11.538-.698 16.755 2.354 5.634 9.082 12.98 13.512 14.752 4.576 1.831 5.499 3.907 1.188 2.671-11.248-3.227-21.108-16.391-21.168-28.265-.033-6.588-3.461-9.785-10.513-9.804-2.756-.008-5.958-.268-7.116-.579-1.698-.456-3.006.632-6.75 5.613-3.902 5.19-4.644 6.888-4.644 10.622 0 3.917.562 5.049 4.75 9.554 5.782 6.222 17.781 15.267 23.765 17.913 6.098 2.698 6.893 4.343 1.766 3.655-8.473-1.136-17.172-6.472-27.651-16.959-5.428-5.433-11.249-10.591-12.934-11.463-7.787-4.026-26.071 1.542-30.672 9.341-2.945 4.991-2.645 6.317 1.426 6.317 6.671 0 14.16 2.258 25.55 7.703 23.64 11.302 38.205 17.063 47 18.59 7.006 1.217 19.932.622 25.093-1.154zm104.151-1.874c.691-.543 2.863-1.234 4.827-1.535 1.964-.301 7.139-2.205 11.5-4.232 4.361-2.026 10.629-4.937 13.929-6.468 15.847-7.351 24.766-10.03 33.384-10.03 3.914 0 7.116-.24 7.116-.533 0-4.217-10.271-16.467-13.806-16.467-.987 0-2.256-.462-2.821-1.027-.564-.565-3.375-1.305-6.246-1.645-8.874-1.051-11.826.601-23.584 13.194-8.277 8.865-11.774 11.849-16.752 14.293-6.295 3.09-11.791 4.886-11.791 3.852 0-.303 2.812-2.039 6.25-3.859 7.42-3.928 19.676-15.621 22.468-21.436 2.494-5.194 2.096-8.954-1.714-16.182-1.65-3.13-3.001-6.253-3.002-6.94-.003-1.615.051-1.621-8.347.882-3.935 1.172-8.153 3.037-9.373 4.143-2.363 2.144-4.713 8.442-5.823 15.603-.816 5.267-3.537 10.289-8.372 15.454-4.358 4.656-7.99 6.668-12.038 6.668-4.146 0-3.844-1.583.581-3.044 4.184-1.38 10.451-6.723 13.26-11.303 1.064-1.734 2.256-5.403 2.65-8.153.394-2.75.844-5.716 1-6.59.486-2.729-3.241-9.671-6.207-11.559-1.558-.993-3.122-2.212-3.474-2.71-.797-1.126-7-.019-11.248 2.007-3.384 1.614-7.611 6.92-7.611 9.555 0 .869 1.163 1.872 2.586 2.229 7.083 1.778 9.938 10.437 4.779 14.495-3.309 2.603-9.998 2.731-12.968.248-3.315-2.771-4.397-5.621-4.397-11.579 0-9.71 5.073-16.391 16.951-22.325 5.245-2.62 6.287-2.771 19.049-2.762 13.778.01 17.109.683 29.21 5.904 1.809.781 5.09 2.192 7.29 3.135 2.2.943 5.772 2.556 7.938 3.583 2.165 1.028 4.283 1.869 4.705 1.869.422 0 3.825 1.412 7.562 3.139 3.737 1.726 8.595 3.948 10.795 4.938 18.312 8.235 48.376 8.071 62.278-.341 15.752-9.53 22.843-21.228 23.943-39.495.673-11.174-3.855-21.557-13.53-31.028-6.991-6.843-12.717-9.658-23.191-11.403-15.119-2.518-22.765-1.203-36.991 6.363-5.23 2.782-11.932 6.918-14.894 9.192-17.489 13.429-25.231 17.635-32.462 17.635-3.005 0-8.764 2.895-5.903 2.968a1.298 1.298 0 0 1 1.254 1.282c.007 1.756 5.542 7.464 8.945 9.223 4.695 2.428 11.422 3.567 15.002 2.541 3.72-1.067 6.434-3.755 11.922-11.807 6.291-9.229 19.435-20.056 28.018-23.079 2.813-.991 5.413-2.1 5.778-2.465.365-.365 1.264-.663 1.997-.663 2.935 0 .978 1.707-6.046 5.275-16.568 8.415-32.884 30.094-28.121 37.365.801 1.221 2.822 3.027 4.494 4.014 1.671.988 3.594 3.072 4.272 4.631 1.009 2.317 1.692 2.735 3.735 2.284 1.375-.304 4.649-.996 7.277-1.54 2.627-.543 5.624-1.441 6.66-1.996 2.046-1.095 3.21-6.038 2.951-12.533-.195-4.9 1.768-11.823 4.679-16.5 2.251-3.616 12.046-13 13.571-13 1.654 0 .822 1.275-4.782 7.329-8.979 9.698-11.236 17.032-7.815 25.4 2.126 5.203 5.235 7.189 11.677 7.458 4.256.178 6.071-.257 8.61-2.065 2.961-2.108 7.172-8.617 7.172-11.085 0-.574-1.8-2.669-4-4.656-3.105-2.805-4-4.342-4-6.863 0-8.062 8.309-11.299 14.805-5.768 3.636 3.095 6.593 12.153 5.672 17.377-2.213 12.563-14.823 23.396-30.157 25.908-14.513 2.377-33.701 0-44.497-5.513-1.828-.933-5.851-2.52-8.941-3.526-3.09-1.006-7.815-2.921-10.5-4.256-4.543-2.258-19.249-7.928-27.441-10.58-11.167-3.614-31.913-3.899-41.441-.569-13.902 4.859-23.788 17.296-27.03 34.001-1.24 6.39-1.197 7.828.432 14.506 3.926 16.098 12.067 26.052 25.366 31.016 4.481 1.673 7.132 1.895 18.476 1.546 7.285-.223 13.81-.851 14.5-1.395zm-60.405-66.116c4.149-3.875 3.218-7.908-2.537-10.988-3.581-1.916-9.315 1.321-9.288 5.244.033 4.649 2.945 7.693 8.13 8.495.354.055 2.017-1.183 3.695-2.751zm216.433-9.948c2.325-2.09 6.07-4.602 8.321-5.582 2.975-1.295 4.545-2.806 5.747-5.53.91-2.062 2.829-4.377 4.265-5.146 1.436-.768 3.958-3.355 5.604-5.748l2.994-4.351-7.852.68c-5.467.473-10.661.193-17.102-.923-11.42-1.977-10.603-2.031-9.851.649 1.429 5.095 1.824 19.547.633 23.155-2.44 7.394.752 8.626 7.241 2.796zm-436.027-11.06c-.497-12.27-.403-13.117 2.061-18.5 1.421-3.103 2.42-5.641 2.221-5.641-.199 0-2.406.876-4.905 1.947-7.112 3.049-13.805 3.887-23.33 2.921-4.741-.48-8.805-.689-9.03-.464-.664.664 2.4 5.877 5.172 8.802 1.411 1.488 2.566 3.382 2.566 4.208 0 2.367 7.236 9.357 10.522 10.165 2.887.709 7.478 4.632 7.478 6.389 0 .845 4.381 2.796 6.633 2.953.815.056.987-3.533.612-12.78zm250.255-.683c19.859-3.332 31.768-6.787 51.5-14.941 21.66-8.952 39.674-18.711 50.063-27.124 11.356-9.196 27.011-23.356 31.195-28.217 2.213-2.572 4.327-4.901 4.696-5.176.544-.406 12.352-14.65 17.463-21.066 6.55-8.223 19.147-32.009 24.592-46.434 1.245-3.3 3.064-8.025 4.041-10.5.977-2.475 2.099-6.3 2.494-8.5.394-2.2 1.119-4.511 1.612-5.134.493-.624 1.535-4.449 2.315-8.5.781-4.052 2.108-10.313 2.949-13.913 1.564-6.698 1.948-10.505 3.169-31.453.95-16.287.942-16.956-.405-33.674-1.66-20.6-6.867-42.104-14.61-60.326-4.811-11.323-13.693-29.31-16.431-33.271-2.981-4.313-10.143-16.124-10.143-16.726 0-1.979-18.204-23.6-29-34.446-8.075-8.111-26.895-23.141-31.742-25.35-1.242-.565-2.258-1.406-2.258-1.868 0-.462-.48-.839-1.067-.839s-2.499-1.087-4.25-2.414c-3.084-2.339-21.048-11.606-29.183-15.056-18.16-7.7-43.545-15.043-60-17.358-42.112-5.922-84.497-.814-120.369 14.508-35.556 15.187-56.709 29.157-81.189 53.621-14.369 14.359-30.306 35.473-35.596 47.16-.757 1.671-1.803 3.714-2.324 4.539-2.004 3.169-11.023 22.957-11.028 24.196-.004.717-.623 2.485-1.377 3.929-1.749 3.353-7.282 20.84-8.66 27.375-.58 2.75-1.461 6.8-1.958 9-2.914 12.908-5.21 36.519-4.669 48 .311 6.6.78 13.125 1.041 14.5.262 1.375.77 5.65 1.129 9.5.917 9.812 5.32 33.182 7.6 40.335 6.09 19.102 12.693 33.971 23.125 52.071 16.003 27.765 27.273 41.489 48.467 59.019 12.355 10.22 10.463 8.772 20.106 15.376 26.013 17.815 59.846 31.895 88.202 36.705 4.125.7 9.994 1.823 13.042 2.496s10.014 1.313 15.48 1.424c5.465.11 10.172.445 10.458.744.951.996 32.38-.679 41.52-2.212zm207.884-20.64c2.263-.65 5.31-2 6.77-3s3.101-1.818 3.646-1.818c.545 0 4.107-3.085 7.915-6.856 5.956-5.897 8.791-9.989 13.387-19.322a961.08 961.08 0 0 1 1.854-3.739c1.887-3.782 3.278-15.448 2.735-22.945-1.507-20.81-2.627-24.266-17.931-55.325-12.618-25.609-12.899-26.438-13.363-39.442-.293-8.223-.017-12.037 1.058-14.61.8-1.916 1.677-4.709 1.949-6.209.483-2.661.976-3.47 5.096-8.366 5.89-7.001 17.058-9.26 25.891-5.236 5.375 2.448 6.345 3.637 6.737 8.255.36 4.245-3.016 9.795-5.959 9.795-3.279 0-7.101-2.478-8.869-5.75-1.944-3.6-3.44-3.926-8.436-1.838-3.99 1.667-7.864 8.653-7.864 14.181 0 4.408 3.936 9.84 8.209 11.33 10.194 3.553 24.52-2.634 32.098-13.863.906-1.342 1.948-2.139 2.316-1.77.907.906-3.994 8.163-7.931 11.745-4.151 3.776-7.479 5.34-17.534 8.243-10.553 3.047-12.225 4.689-12.762 12.534-.396 5.782-.261 6.216 2.844 9.187 4.798 4.59 10.226 7.162 13.508 6.402 8.194-1.899 20.536-13.523 25.796-24.294 1.626-3.329 3.518-6.065 4.206-6.08 1.673-.037 1.747-.271-2.395 7.572-5.397 10.221-8.364 14.179-16.226 21.649-9.856 9.364-12.142 13.26-12.337 21.022-.248 9.892 6.338 21.759 13.162 23.717 3.67 1.052 3.524 1.305 4.987-8.665 1.138-7.744 4.386-16.46 10.555-28.322 4.132-7.945 7.982-16.535 9.634-21.5.55-1.65 1.405-3.758 1.902-4.685 3.506-6.542 3.591-30.83.133-37.974-1.191-2.46-2.165-4.912-2.165-5.448 0-.536-3.038-4.201-6.75-8.145-5.429-5.767-8.317-7.899-14.75-10.886-6.721-3.12-9.039-3.706-14.5-3.663-16.565.131-31.824 9.299-38.122 22.906-3.616 7.813-4.917 13.481-5.581 24.315-.888 14.488 2.411 28.162 11.359 47.08 1.951 4.125 4.583 10.2 5.849 13.5 1.265 3.3 3.099 7.8 4.075 10 .975 2.2 1.87 4.45 1.987 5 .118.55.962 3.854 1.875 7.343 2.13 8.136 2.006 27.456-.219 34.08-1.973 5.874-8.942 16.539-13.878 21.237-11.198 10.66-31.345 6.345-31.345-6.713 0-5.916.696-7.252 4.896-9.395 6.761-3.449 12.104-.31 12.104 7.111 0 2.045.42 3.978.934 4.296.514.317 2.74-.146 4.948-1.029 6.728-2.692 11.409-10.759 10.522-18.131-.764-6.339-1.304-7.103-6.993-9.886-4.514-2.209-6.349-2.581-10.379-2.104-5.328.631-11.942 3.6-15.136 6.795-1.112 1.111-2.52 1.854-3.129 1.651-1.898-.632 10.141-9.651 14.549-10.898 2.301-.651 7.334-1.111 11.184-1.021 11.331.265 12.772-.808 13.875-10.336.255-2.2.777-5.238 1.161-6.75.505-1.995.322-2.756-.67-2.772-.751-.012-2.592-1.755-4.09-3.874-2.755-3.896-7.959-7.104-11.522-7.104-3.274 0-13.981 7.632-23.09 16.459-4.759 4.612-8.823 8.215-9.03 8.008-.208-.207.771-2.336 2.174-4.73 3.068-5.235 14.123-16.187 21.637-21.435 2.994-2.091 6.265-5.208 7.267-6.925 2.324-3.981 2.958-12.842 1.27-17.752-1.215-3.533-9.419-12.625-11.393-12.625-1.175 0-2.089 2.564-2.089 5.859 0 2.686-4.399 12.082-8.069 17.237-1.062 1.492-1.931 2.987-1.931 3.323 0 .336-2.18 3.642-4.844 7.346s-5.697 8.31-6.739 10.235c-1.042 1.925-2.429 4.175-3.081 5-5.577 7.054-11.096 25.515-10.087 33.741.99 8.073 3.937 18.927 6.531 24.055 4.625 9.143 14.554 17.85 23.619 20.711 5.269 1.664 17.688 1.832 22.985.311zm-460.206-8.703c7.772-3.863 16.872-12.523 20.044-19.074 2.968-6.131 4.065-12.051 4.085-22.041.021-10.527-1.109-15.332-5.153-21.903-1.735-2.82-3.154-5.314-3.154-5.542 0-.228-1.8-3.124-4-6.436s-4-6.329-4-6.704c0-.376-2.904-5.03-6.452-10.343-3.549-5.314-7.709-12.904-9.246-16.867-1.557-4.014-3.393-7.205-4.147-7.205-.745 0-3.314 2.075-5.71 4.612-3.416 3.616-4.493 5.613-4.99 9.25-.348 2.55-.771 5.557-.94 6.681-.672 4.463 1.999 7.858 9.351 11.886 7.883 4.318 18.507 13.464 20.81 17.914.809 1.563 1.283 3.03 1.054 3.26-.23.23-3.522-2.537-7.316-6.149-10.772-10.254-23.515-15.52-30.578-12.634-3.086 1.261-10.124 10.121-9.096 11.451.522.676 1.504 3.254 2.181 5.729 1.707 6.236 4.149 7.741 13.136 8.096 7.207.285 8.945.679 15.538 3.518 5.098 2.195 10.786 7.964 9.935 10.076-.686 1.699-.779 1.687-1.517-.19-2.342-5.951-20.271-12.254-27.278-9.59-2.865 1.089-7.548 8.324-8.703 13.445-.951 4.219 3.015 14.305 6.707 17.056 1.411 1.051 4.746 2.121 7.411 2.377l4.846.466-.594-5.877c-.518-5.134-.319-6.167 1.58-8.17 2.95-3.11 9.111-2.569 12.804 1.124 6.794 6.794-.341 18.42-12.078 19.68-8.372.899-14.013-1.289-20.408-7.914-6.283-6.509-9.011-12.483-10.372-22.713-2.156-16.198-.316-24.703 10.158-46.95 1.052-2.236 1.914-4.519 1.914-5.073 0-.554 1.29-3.674 2.867-6.934 9.157-18.928 11.131-24.071 13.729-35.758 1.411-6.348 1.532-8.715.638-12.5-.606-2.568-1.39-6.425-1.742-8.571-.352-2.146-2.011-7.692-3.687-12.324-5.606-15.493-16.471-24.298-32.136-26.045-21.152-2.358-33.3 4.975-44.192 26.68-1.913 3.811-3.477 7.79-3.477 8.843s-.304 2.217-.674 2.588c-.808.808-1.105 3.803-1.316 13.277-.234 10.511 2.266 19.107 10.436 35.883 8.396 17.238 12.11 27.099 14.976 39.772.528 2.337.92 2.615 2.494 1.772 2.734-1.463 9.654-8.212 10.905-10.636 1.815-3.518 4.149-10.791 4.164-12.98.028-3.999-3.046-10.991-6.569-14.941-15.468-17.341-18.922-21.959-19.962-26.694-.334-1.524-1.024-3.027-1.531-3.341-1.207-.746-1.199-4.452.01-4.452.512 0 1.24 1.012 1.616 2.25 2.078 6.835 15.102 23.243 22.124 27.872 3.834 2.528 6.307 2.355 10.382-.728 1.895-1.434 4.907-3.24 6.695-4.014l3.25-1.407v-7.522c0-10.05-1.249-11.845-10.066-14.471-9.729-2.897-18.43-7.462-20.938-10.986-3.403-4.779-1.896-5.322 2.678-.965 4.676 4.455 12.932 8.971 16.4 8.971 5.484 0 12.331-4.065 14.777-8.773 1.271-2.447-.108-11.21-2.282-14.503-3.143-4.76-10.57-8.835-10.57-5.801 0 .508-1.164 2.308-2.588 4-3.85 4.576-8.471 4.335-11.379-.592-2.559-4.338-2.142-7.057 1.748-11.412 2.324-2.601 3.658-3.149 8.793-3.614 7.054-.64 9.941.516 16.017 6.413 5.658 5.491 9.92 17.189 9.756 26.782-.191 11.202-3.467 22.508-11.019 38.031-3.755 7.717-8.136 18.067-9.734 23-1.6 4.933-3.293 9.869-3.764 10.969-1.405 3.283-5.813 25.714-5.821 29.627-.012 5.347 2.934 17.583 5.747 23.873 4.722 10.555 5.28 11.53 9.252 16.162 6.97 8.128 18.251 11.873 34.493 11.454 5.694-.148 8.246-.801 13.678-3.501zM69.308 405.801c-1.412-1.412-1.569-2.8-.317-2.8.486 0 1.119.9 1.406 2 .61 2.334.515 2.404-1.09.8zM544.53 542.436c4.216-4.216-.227-12.435-6.722-12.435-5.881 0-8.687 5.237-5.888 10.991 2.543 5.228 8.18 5.874 12.61 1.444zm-352.783-2.551c.912-.757 1.349-2.559 1.161-4.792-.233-2.771-.924-3.876-3.066-4.898-6.756-3.222-12.957 4.587-7.996 10.069 1.904 2.103 7.152 1.902 9.901-.379zM48.455 380.435c4.374-6.3 10.937-11.818 20.252-17.027 5.654-3.162 7.41-5.407 4.226-5.407-.58 0-4.422-1.577-8.536-3.503-7.778-3.643-19.325-13.81-21.183-18.652l-.9-2.345-1.19 3c-.653 1.65-1.207 5.475-1.23 8.5-.024 3.025-.389 5.95-.811 6.5-.423.55-1.327 2.882-2.01 5.183-1.125 3.788-1.034 4.534.957 7.909 1.734 2.94 2.073 4.658 1.601 8.134-.46 3.399-.091 5.419 1.617 8.84 1.218 2.438 2.472 4.428 2.787 4.422.315-.007 2.304-2.506 4.42-5.554zm643.343-6.102c-.435-4.254-.189-5.476 1.391-6.905 2.49-2.254 2.436-6.493-.148-11.558-1.639-3.213-1.863-4.633-1.08-6.875.54-1.553.838-2.975.66-3.159-.177-.185-.602-2.109-.943-4.277-.341-2.168-.841-4.162-1.11-4.432-.27-.27-2.396 1.45-4.725 3.821-5.895 6.002-13.135 11.312-20.485 15.024-3.438 1.736-6.25 3.34-6.25 3.563 0 .224 2.453 1.568 5.452 2.986 6.058 2.866 19.218 14.591 22.7 20.225l2.248 3.639 1.41-3.442c.9-2.198 1.218-5.311.88-8.61zm-572.797-7.332c.401 0 1.751-.951 2.998-2.114 5.566-5.185-3.075-14.304-9.131-9.636-1.682 1.296-2.08 2.673-1.879 6.5.152 2.881 3.818 6.579 5.778 5.827.827-.318 1.833-.577 2.234-.577zm496.472-2.073c3.091-2.431 3.283-4.57.691-7.677-2.633-3.157-7.496-3.035-9.643.242-1.882 2.871-1.198 7.508 1.106 7.508.814 0 1.481.45 1.481 1 0 1.707 3.602 1.1 6.365-1.073zM96.371 352.96c3.097-.573 7.793-2.239 10.434-3.704 7.311-4.053 15.906-13.173 19.276-20.454 4.828-10.431 6.117-27.517 3.002-39.801-.488-1.925-1.123-4.85-1.411-6.5-1.542-8.833-4.405-16.887-13.508-38-.475-1.1-2.23-6.05-3.902-11-6.969-20.635-7.315-23.991-4.155-40.266 2.696-13.885 6.716-20.167 16.501-25.784 4.257-2.443 6.113-2.876 12.5-2.91 5.67-.031 8.158.406 10.2 1.791 2.502 1.699 5.058 6.859 5.384 10.873.198 2.434-4.602 7.5-7.774 8.205-3.836.853-8.155-2.996-8.036-7.162.147-5.174-4.132-5.352-10.583-.44-4.498 3.426-6.191 7.098-6.191 13.431 0 10.149 7.117 14.785 19.5 12.703 8.063-1.356 10.245-2.474 15.335-7.857 4.26-4.504 4.324-4.532 3.681-1.584-.36 1.65-2.086 4.502-3.835 6.337-5.338 5.6-9.722 7.235-21.809 8.129-6.479.48-11.543 1.346-12.498 2.138-.882.732-3.058 4.376-4.836 8.097l-3.232 6.766 5.139 3.54c6.105 4.204 11.502 5.88 15.87 4.929 8.775-1.91 21.916-12.204 28.278-22.15 1.874-2.929 3.407-5.767 3.407-6.306 0-.539.45-.98 1-.98s1-1.152 1-2.559c0-1.408.412-2.304.917-1.993 1.342.83-.609 7.036-4.229 13.45-4.49 7.955-14.875 18.569-21.033 21.497-7.023 3.338-11.622 8.013-11.779 11.973-.496 12.523.642 16.652 6.19 22.459 3.507 3.67 3.947 3.493 5.795-2.327 1.519-4.782 8.027-18.168 10.14-20.853.824-1.048 2.567-3.086 3.872-4.527 2.68-2.959 15.084-21.769 15.894-24.1.29-.836 1.441-3.545 2.557-6.02 2.96-6.564 2.834-22.035-.253-31-4.766-13.842-10.576-21.079-20.57-25.625-5.323-2.421-7.244-2.737-17-2.802-15.531-.104-22.878 2.894-33.755 13.772-9.2 9.199-14.901 27.596-14.15 45.655.387 9.296 2.741 21.502 4.973 25.78.78 1.496 1.421 3.182 1.425 3.747.003.565 2.735 7.09 6.071 14.5 12.062 26.797 16.527 43.107 14.932 54.546-1.971 14.125-7.858 22.441-18.193 25.699-13.011 4.102-21.804.535-21.804-8.845 0-3.598.485-4.56 3.433-6.809 5.173-3.946 9.697-3.242 14.305 2.226 2.6 3.085 3.976 2.607 8.416-2.925 5.541-6.903 3.829-20.335-2.89-22.677-5.957-2.077-16.875 2.313-25.014 10.057-4.643 4.419-4.368.943.338-4.266 3.925-4.344 11.607-8.398 20.861-11.009 7.39-2.084 9.194-4.427 9.865-12.811.477-5.968.368-6.372-2.156-7.957-1.462-.919-3.864-2.646-5.337-3.839-3.722-3.013-9.077-3.868-12.543-2.003-6.77 3.643-19.148 17.703-22.651 25.732-2.19 5.018-2.056.443.151-5.146 3.47-8.786 6.455-13.29 14.149-21.346 4.283-4.485 8.302-9.137 8.93-10.339 1.494-2.855 1.39-16.061-.152-19.506-1.456-3.252-8.272-8.809-10.804-8.809-1.306 0-2.234 1.348-3.27 4.75-.796 2.612-2.097 6.325-2.891 8.25-2.326 5.636-3.06 7.468-3.2 8-.071.275-1.13 2.3-2.351 4.5-10.292 18.535-12.462 22.982-14.64 30-3.408 10.984-5.27 28.539-3.837 36.169 2.672 14.224 11.469 26.233 23.058 31.478 10.164 4.599 19.032 5.746 29.493 3.812zm561.176-1.556c3.266-.802 7.792-2.631 10.056-4.064 8.377-5.299 17.782-21.934 18.817-33.28.653-7.163-.872-22.827-2.635-27.059-.344-.825-1.085-3.62-1.646-6.211-.97-4.474-3.426-10.289-6.667-15.789-.81-1.375-2.117-3.932-2.904-5.682-.786-1.75-1.874-3.456-2.417-3.791-2.957-1.828-8.043-19.606-8.043-28.115 0-3.839-1.369-4.313-5.8-2.007-9.739 5.067-14.473 20.654-9.309 30.649 2.617 5.066 8.875 13.789 13.592 18.946 3.921 4.286 9.285 13.093 11.09 18.204 1.691 4.795 1.203 4.808-1.68.046-2.958-4.886-9.738-13.709-14.41-18.75-7.472-8.065-11.51-9.206-17.698-5-2.024 1.375-4.117 2.5-4.653 2.5-1.457 0-2.572 12.738-1.35 15.422 1.004 2.202 1.991 2.6 13.718 5.531 6.787 1.696 17.477 11.748 17.493 16.45.007 2-.753 1.359-5.848-4.936-4.026-4.973-14.613-9.165-20.405-8.078-5.498 1.031-12.542 6.235-13.593 10.04-1.91 6.919.997 14.198 7.531 18.849 5.413 3.854 9.322 3.29 9.322-1.345 0-3.758 4.19-7.933 7.96-7.933 4.638 0 10.852 8.627 9.653 13.403-.945 3.766-6.888 9.238-10.836 9.979-10.466 1.963-24.376-5.613-29.26-15.938-2.342-4.949-2.654-6.81-2.602-15.526.031-5.446.47-10.693.974-11.66.504-.967 1.487-3.783 2.185-6.258s3.921-10.083 7.161-16.907c15.095-31.79 18.768-43.59 19.385-62.271.233-7.061-.049-12.793-.713-14.5-.605-1.552-1.718-5.155-2.473-8.007-2.207-8.323-7.433-18.366-11.862-22.796-11.707-11.706-30.258-16.291-43.042-10.636-8.823 3.903-20.516 14.666-24.768 22.797-3.936 7.527-7.427 31.173-4.839 32.772.508.314 1.234 1.987 1.614 3.719.673 3.064 3.695 8.108 10.981 18.329 1.961 2.75 6.032 9.05 9.047 14 3.016 4.95 5.911 9.675 6.434 10.5.988 1.558 3.775 7.776 6.386 14.25.832 2.062 2.176 3.75 2.987 3.75 4.672 0 13.801-13.815 13.994-21.177.125-4.771-2.789-7.933-10.807-11.725-8.132-3.846-15.32-9.436-20.745-16.131-11.276-13.916-9.63-14.604 3.506-1.467 5.225 5.225 10.034 9.5 10.686 9.5.652 0 2.425.882 3.939 1.961 1.515 1.079 4.721 2.403 7.124 2.943 5.195 1.167 8.154.003 14.786-5.818 3.802-3.336 4.215-4.086 3.25-5.889-.608-1.136-1.105-4.74-1.105-8.009 0-4.025-.478-6.34-1.479-7.171-.907-.753-5.515-1.33-11.918-1.493-10.741-.274-15.812-1.792-21.229-6.354-2.099-1.767-5.93-8.17-4.889-8.17.296 0 3.12 1.731 6.276 3.847 11.46 7.682 19.866 8.836 25.605 3.514 4.491-4.165 7.408-14.147 4.634-15.861-.55-.34-1-1.663-1-2.941 0-2.845-5.808-7.559-9.312-7.559-1.783 0-2.788.825-3.708 3.047-1.252 3.024-5.42 5.953-8.47 5.953-2.64 0-9.37-3.869-10.543-6.062-2.886-5.391 3.291-13.15 11.441-14.372 8.588-1.288 20.195 3.854 25.493 11.294 6.443 9.049 8.747 18.759 8.39 35.361-.172 7.976-.783 11.387-3.404 19-1.758 5.103-3.576 9.429-4.042 9.612-.465.183-.845 1.008-.845 1.832 0 1.423-2.608 7.771-9.175 22.335-4.373 9.697-4.45 9.905-6.649 18-4.694 17.271-5.221 27.262-2.045 38.716 3.845 13.869 9.39 21.39 20.634 27.988 7.245 4.252 21.45 4.948 34.674 1.699zM543.28 191.346c3.928-3.555.665-11.345-4.753-11.345-5.464 0-8.295 6.021-5.178 11.013 1.557 2.492 7.331 2.685 9.931.332zm-349.697-2.296c2.026-3.918 1.924-5.651-.474-8.049-3.005-3.005-7.436-2.601-9.932.904-2.569 3.607-2.568 4.19.004 7.461 3.042 3.867 8.322 3.706 10.402-.316zm348.162-19.685c15.072-5.052 22.677-12.029 27.934-25.629 3.484-9.011 3.496-18.857.034-28.055-1.336-3.549-3.256-7.475-4.267-8.723-9.515-11.757-16.442-16.684-28.902-20.558-7.692-2.392-10.535-2.767-20.435-2.7-12.434.085-14.407.304-23.5 2.618-11.291 2.872-16.01 4.477-27 9.177-12.182 5.21-20.668 8.33-24.486 9.004-1.383.243-6.945 1.355-12.361 2.47-15.753 3.242-25.734.951-34.635-7.95-6.13-6.13-7.633-16.062-3.608-23.846 1.754-3.39 6.763-5.163 11.265-3.985 3.8.995 5.788 5.672 4.869 11.454-.669 4.21-1.882 6.014-4.635 6.887-4.487 1.425.053 6.296 7.591 8.144 8.896 2.18 15.85.278 18.743-5.128 2.557-4.776.212-15.555-4.47-20.544-2.863-3.052-5.773-7.18-5.773-8.192 0-1.278 3.371.366 6.33 3.088 3.058 2.813 6.873 10.195 8.58 16.604.586 2.2 2.083 5.225 3.328 6.724 2.367 2.851 4.058 3.193 14.418 2.914 4.987-.134 5.274-.302 8.75-5.14 1.977-2.752 3.594-5.736 3.594-6.633 0-6.028-16.378-21.143-27.082-24.992-5.15-1.852-7.741-3.884-6.516-5.11 1.097-1.096 14.667 3.831 19.598 7.116 5.178 3.45 15.646 13.93 16.452 16.47.837 2.636 5.47 4.85 11.548 5.514 4.846.531 6.249.227 11.8-2.555 5.76-2.888 12.2-8.576 12.2-10.776 0-1.153-1.916-1.712-10.424-3.043-6.07-.95-16.142-4.352-17.576-5.937-.275-.304-2.075-1.33-4-2.28-1.925-.95-5.525-2.938-8-4.42-6.567-3.928-14.067-7.53-17.5-8.404-1.65-.42-6.6-1.73-11-2.914-10.838-2.914-23.085-2.91-30.89.01-5.941 2.223-14.617 8.774-20.502 15.482-10.707 12.204-11.845 30.514-2.853 45.911 4.807 8.229 7.202 10.602 15.251 15.103 15.303 8.558 30.207 8.443 62.994-.487 3.8-1.036 6.315-2.052 15-6.063 10.152-4.689 18.167-7.604 27.645-10.054 11.044-2.854 28.122-2.337 37.355 1.13 15.921 5.979 24.68 21.587 20.307 36.184-2.343 7.82-10.26 12.238-17.432 9.726-3.34-1.17-7.375-6.578-7.375-9.884 0-5.502 5.358-10.492 11.336-10.558 2.69-.029 3.211-.442 3.478-2.759.242-2.099-.76-3.873-4.365-7.726-5.06-5.41-8.734-6.781-15.009-5.604-3.033.569-3.847 1.337-5.5 5.194-2.582 6.023-2.446 10.555.593 19.866 1.393 4.269 2.29 8.006 1.99 8.305-1.005 1.005-3.433-3.261-5.582-9.81-1.789-5.453-2.024-7.806-1.46-14.6l.673-8.099-3.478-1.651c-1.913-.908-4.998-1.65-6.855-1.65-1.857 0-4.314-.657-5.46-1.46-1.944-1.361-2.462-1.107-7.722 3.788-4.703 4.377-5.639 5.809-5.639 8.625 0 3.736 6.239 16.02 11.452 22.547 3.933 4.924 4.997 7.5 3.097 7.5-1.318 0-9.714-10.703-12.543-15.989-.727-1.358-1.813-2.987-2.414-3.618-.601-.632-1.767-2.154-2.592-3.382-.825-1.229-3.266-3.364-5.425-4.746-3.395-2.173-4.711-2.44-9.751-1.983-7.111.645-13.792 4.305-17.312 9.485-1.382 2.033-2.512 4.188-2.512 4.788 0 .6 2.753 1.604 6.119 2.23 8.021 1.491 16.929 5.799 24.477 11.838 12.438 9.949 21.279 16.601 24.052 18.095 12.973 6.991 22.982 8.005 35.988 3.646zm-323.136-3.872c8.943-3.082 18.734-8.257 33-17.443 20.446-13.164 19.736-12.841 30.75-13.972 3.428-.352-6.893-11.394-12.736-13.625-2.365-.903-6.648-1.712-9.517-1.797-5.061-.151-5.352-.006-9.749 4.845-2.493 2.75-5.574 6.647-6.846 8.659-2.836 4.486-12.824 14.841-14.316 14.841-1.943 0-1.176-1.388 4.841-8.749 3.258-3.986 7.109-9.67 8.558-12.631 3.243-6.628 2.713-9.375-3.069-15.909l-4.084-4.616-4.916 1.457c-8.618 2.553-11.151 4.385-12.284 8.883-.563 2.235-1.23 6.877-1.483 10.315-.662 9.004-6.891 19.205-13.992 22.913-4.126 2.154-4.644.66-.811-2.34 1.807-1.414 4.423-4.373 5.813-6.576 2.614-4.14 6.273-13.96 6.316-16.95.127-8.814-13.481-13.207-23.224-7.498-3.021 1.771-4.912 3.723-5.647 5.831-1.496 4.292-1.437 4.563 1.146 5.258 1.237.333 3.338 1.454 4.668 2.49 1.957 1.524 2.387 2.707 2.25 6.189-.434 11.091-12.751 12.439-18.834 2.06-7.042-12.017.207-29.188 15.671-37.121 11.636-5.968 29.788-5.569 45.995 1.011 11.325 4.599 25.456 9.983 26.201 9.983.451 0 2.953.952 5.56 2.116 2.606 1.164 6.244 2.78 8.083 3.592 20.626 9.098 42.518 11.171 55.872 5.29 13.332-5.871 24.678-17.887 27.808-29.45 1.596-5.897 1.662-7.59.573-14.706-.677-4.423-1.744-9.235-2.372-10.692-2.717-6.315-7.837-13.062-12.52-16.5-6.289-4.616-19.186-9.354-27.706-10.177-12.419-1.2-31.464 3.48-50.999 12.533-4.95 2.294-9.675 4.322-10.5 4.506-1.966.438-10.693 3.478-14.5 5.051-1.65.682-3.9 1.4-5 1.596-3.163.565-2.968 4.727.475 10.148 3.5 5.51 7.168 7.44 15.781 8.296 8.616.857 12.047-1.06 24.322-13.59 10.08-10.288 17.306-15.496 20.566-14.822.932.192-.494 1.814-3.787 4.309-8.176 6.192-15.99 15.119-20.07 22.927-1.468 2.81-1.401 3.11 1.689 7.5 1.771 2.515 3.479 5.31 3.798 6.213.485 1.374 1.692 1.56 7.402 1.147 9.984-.722 13.469-2.69 14.897-8.409 1.904-7.627 6.407-15.696 10.789-19.336 2.258-1.875 4.299-3.214 4.537-2.976.239.238-1.178 2.796-3.148 5.683-6.484 9.504-8.054 13.369-7.485 18.418 1.037 9.203 8.682 13.108 19.19 9.802 9.773-3.074 13.968-11.011 7.294-13.801-3.717-1.554-5.217-3.173-6.038-6.52-1.081-4.4 2.961-9.148 7.788-9.148 8.591 0 12.429 13.728 6.926 24.772-4.992 10.017-17.119 14.984-33.926 13.894-10.474-.679-15.454-2.204-40.5-12.404-25.552-10.405-26.663-10.792-36.122-12.58-15.316-2.894-23.459-3.086-32.762-.77-10.523 2.618-19.941 7.226-26.112 12.773-2.639 2.373-5.294 4.315-5.901 4.315-.607 0-1.103.844-1.103 1.877s-.614 2.387-1.364 3.009c-.75.623-2.407 4.797-3.683 9.277-2.161 7.591-2.24 8.769-1.162 17.307 1.111 8.794 2.97 14.964 5.515 18.299 3.476 4.557 10.697 11.007 14.204 12.689 11.434 5.484 29.013 6.818 39.99 3.034zm364.373-15.699c6.766-2.393 16.014-3.476 23.127-2.707 3.025.326 5.645.483 5.823.347.517-.394-8.13-8.827-10.253-9.998-1.225-.676-2.016-2.314-2.166-4.481-.297-4.289-5.141-8.954-9.298-8.954-1.574 0-3.443-.701-4.154-1.558-1.649-1.987-9.887-6.841-10.525-6.203-.266.266-.021 1.7.545 3.187 1.622 4.268 1.292 24.005-.472 28.228-1.955 4.679-1.901 5.734.25 4.799.962-.418 4.168-1.615 7.123-2.66zm-427.034-3.423c-2.309-5.221-4.1-21.21-3.192-28.492.865-6.932-.932-7.085-7.062-.602-4.443 4.697-5.626 5.438-7.97 4.99-2.26-.432-3.457.207-6.684 3.565-3.186 3.316-3.93 4.821-3.93 7.942 0 3.114-.572 4.272-2.985 6.056-2.96 2.189-6.384 7.469-5.449 8.405.268.268 2.388.119 4.71-.33 7.826-1.515 21.812-.975 27.223 1.05 7.408 2.773 7.656 2.653 5.34-2.584zm212.821-28.305c2.942-1.794 3.104-2.179 2.338-5.571-.804-3.567-3.303-6.399-5.7-6.463-4.317-.114-9.992 6.207-8.838 9.843.503 1.584 4.721 3.693 8.04 4.02.55.054 2.422-.769 4.16-1.829zm.247-54.065c1.658-5.994 7.196-14.287 13.945-20.882 4.906-4.794 5.325-5.516 3.836-6.604-1.037-.759-3.582-1.039-6.707-.738-3.847.369-5.484.078-6.93-1.231-1.043-.943-3.749-1.963-6.013-2.267-3.339-.448-4.56-.137-6.456 1.644-1.605 1.508-4.129 2.382-8.049 2.786-3.218.332-5.924 1.145-6.199 1.862-.69 1.798 1.451 5.43 3.201 5.43.806 0 1.465.417 1.465.928 0 .511 1.615 2.642 3.59 4.736 4.026 4.269 10.058 14.085 11.027 17.946.793 3.159 1.69 2.174 3.29-3.61z"/><text transform="matrix(14.208 0 0 14.8942 -4953.49 -4410.43)" text-anchor="middle" font-family="Times New Roman" font-size="24" y="328.48" x="375.299" stroke-width="0" stroke="#000" fill="#63b3ff">D</text></svg>