<svg xmlns="http://www.w3.org/2000/svg" width="17" height="16"><path fill-rule="evenodd" fill="#FFF" d="M13.58 12.6a.164.164 0 0 1-.156.122.184.184 0 0 1-.047-.007l-5.824-1.76a.163.163 0 0 1-.108-.106.16.16 0 0 1 .032-.15l5.797-6.804-7.547 6.397a.16.16 0 0 1-.157.034L.608 8.762a.16.16 0 0 1-.024-.296L16.262.516a.164.164 0 0 1 .174.017c.05.04.07.103.056.165L13.582 12.6zm-5.932-.397l1.61.49c.047.016.086.052.104.1.017.045.012.098-.016.14l-1.61 2.52a.164.164 0 0 1-.135.076.163.163 0 0 1-.044-.008.16.16 0 0 1-.117-.154v-3.012c0-.05.023-.1.065-.13a.16.16 0 0 1 .143-.023z"/></svg>