<svg xmlns="http://www.w3.org/2000/svg" width="13" height="16"><path fill-rule="evenodd" fill="#FFF" d="M12.22 13.99c.18.437.127.95-.15 1.358-.274.408-.733.65-1.226.65H2.122a1.48 1.48 0 0 1-1.228-.65 1.464 1.464 0 0 1-.142-1.375l3.06-8.275v-2.44a1.47 1.47 0 0 1-.996-1.39v-.397C2.816.66 3.48 0 4.296 0H8.67c.816 0 1.48.66 1.48 1.47v.4c0 .64-.417 1.188-.995 1.388v2.44l3.065 8.29zm-4.86.288c.48 0 .87-.388.87-.867a.87.87 0 0 0-.87-.864.87.87 0 0 0-.872.865c0 .48.39.868.87.868zm.513-3.63a.628.628 0 0 0-1.256 0 .627.627 0 0 0 1.256 0zm-3.26 1.962c.28 0 .505-.223.505-.5 0-.28-.226-.502-.506-.502a.502.502 0 1 0 0 1.002zM9.17 1.87v-.4a.5.5 0 0 0-.5-.497H4.295a.5.5 0 0 0-.5.498v.4a.5.5 0 0 0 .5.496h.49l.004.487V5.87L3.647 8.96h.045S8.363 8.882 9 8.222l.035-.03-.86-2.32V2.365h.49a.5.5 0 0 0 .506-.497zM6.143 7.743a.68.68 0 0 1-.682-.678.68.68 0 0 1 .682-.677.68.68 0 0 1 .68.676.68.68 0 0 1-.68.678z"/></svg>