<svg xmlns="http://www.w3.org/2000/svg" width="16" height="17"><path fill-rule="evenodd" fill="#FFF" d="M16 15.237c0 .647-.608.788-2.7.936-1.418.1-3.3.156-5.3.156s-3.884-.056-5.302-.157c-2.09-.148-2.7-.29-2.7-.936 0-.647.61-.788 2.7-.936.6-.04 1.29-.075 2.03-.1-1.483-1.29-2.458-3.427-2.458-5.845 0-.312.25-.565.56-.565h10.34c.308 0 .558.253.558.565 0 .3-.02.592-.048.88a1.593 1.593 0 0 1 1.758.724c.223.37.29.805.19 1.226a1.61 1.61 0 0 1-1.558 1.24 1.586 1.586 0 0 1-1.132-.477 6.866 6.866 0 0 1-1.67 2.25c.742.025 1.43.06 2.032.1 2.092.15 2.7.29 2.7.937zm-2.73-3.942c.13.215.334.367.577.427a.94.94 0 0 0 1.13-.696c.058-.245.02-.5-.11-.715a.93.93 0 0 0-1.286-.314c-.003.003-.008.002-.012.005a8.38 8.38 0 0 1-.34 1.25c.014.016.03.027.04.045zm-.68-2.375H3.41c.22 3.044 2.195 5.435 4.59 5.435 2.398 0 4.373-2.39 4.593-5.435zM9.776 6.15a.424.424 0 0 1-.396.57h-.032a.883.883 0 0 1-.704-.488c-.197-.413-.073-.956.382-1.66l.078-.126.026-.043c.35-.59.29-.805.28-.827.002 0 .02.01.047.017a.428.428 0 0 1-.283-.53.43.43 0 0 1 .523-.287.81.81 0 0 1 .505.505c.148.41.03.927-.363 1.584-.307.57-.067 1.28-.065 1.286zm-2.352-.12A.453.453 0 0 1 7 6.637l-.038-.002c-.247-.023-.72-.187-.944-.657-.28-.583-.076-1.414.605-2.47.053-.08.1-.16.146-.234l.023-.036c.59-.992.534-1.425.483-1.565-.034-.095-.095-.125-.097-.126-.22-.064-.355-.317-.284-.557a.453.453 0 0 1 .557-.305c.047.014.475.153.665.676.21.583.02 1.38-.572 2.37-.556 1.04-.128 2.287-.123 2.3z"/></svg>