<svg xmlns="http://www.w3.org/2000/svg" width="16" height="16"><path fill-rule="evenodd" fill="#FFF" d="M14.663 4H8.987l2.24-2.687c.035.006.066.02.103.02a.666.666 0 1 0-.667-.667c0 .08.02.155.046.226L8.12 4h-.244L5.286.892a.678.678 0 0 0 .046-.226.667.667 0 1 0-.667.667c.037 0 .07-.014.104-.02L7.007 4H1.332C.597 4 0 4.598 0 5.334v9.337c0 .738.597 1.335 1.332 1.335h13.33c.737 0 1.334-.597 1.334-1.334V5.335C15.996 4.598 15.4 4 14.663 4zm-2.666 9.337c0 .737-.597 1.334-1.334 1.334H2.666a1.334 1.334 0 0 1-1.334-1.333v-6.67c0-.736.598-1.333 1.334-1.333h7.997c.737 0 1.334.597 1.334 1.334v6.67zm1.964-5.96a.953.953 0 0 1 0-1.905.95.95 0 0 1 0 1.905z"/></svg>